HIERARCHY
ROOT Hips
{
	OFFSET 0.000000 0.000000 0.000000
	CHANNELS 6 Xposition Yposition Zposition Zrotation Yrotation Xrotation 
	JOINT LHipJoint
	{
		OFFSET 0.000000 0.000000 0.000000
		CHANNELS 3 Zrotation Yrotation Xrotation
		JOINT LeftUpLeg
		{
			OFFSET 1.363060 -1.794630 0.839290
			CHANNELS 3 Zrotation Yrotation Xrotation
			JOINT LeftLeg
			{
				OFFSET 2.448110 -6.726130 0.000000
				CHANNELS 3 Zrotation Yrotation Xrotation
				JOINT LeftFoot
				{
					OFFSET 2.562200 -7.039590 0.000000
					CHANNELS 3 Zrotation Yrotation Xrotation
					JOINT LeftToeBase
					{
						OFFSET 0.157640 -0.433110 2.322550
						CHANNELS 3 Zrotation Yrotation Xrotation
						End Site
						{
							OFFSET 0.000000 0.000000 0.000000
						}
					}
				}
			}
		}
	}
	JOINT RHipJoint
	{
		OFFSET 0.000000 0.000000 0.000000
		CHANNELS 3 Zrotation Yrotation Xrotation
		JOINT RightUpLeg
		{
			OFFSET -1.305520 -1.794630 0.839290
			CHANNELS 3 Zrotation Yrotation Xrotation
			JOINT RightLeg
			{
				OFFSET -2.542530 -6.985550 0.000000
				CHANNELS 3 Zrotation Yrotation Xrotation
				JOINT RightFoot
				{
					OFFSET -2.568260 -7.056230 0.000000
					CHANNELS 3 Zrotation Yrotation Xrotation
					JOINT RightToeBase
					{
						OFFSET -0.164730 -0.452590 2.363150
						CHANNELS 3 Zrotation Yrotation Xrotation
						End Site
						{
							OFFSET 0.000000 0.000000 0.000000
						}
					}
				}
			}
		}
	}
	JOINT LowerBack
	{
		OFFSET 0.000000 0.000000 0.000000
		CHANNELS 3 Zrotation Yrotation Xrotation
		JOINT Spine
		{
			OFFSET 0.028270 2.035590 -0.193380
			CHANNELS 3 Zrotation Yrotation Xrotation
			JOINT Spine1
			{
				OFFSET 0.056720 2.048850 -0.042750
				CHANNELS 3 Zrotation Yrotation Xrotation
				JOINT Neck
				{
					OFFSET 0.000000 0.000000 0.000000
					CHANNELS 3 Zrotation Yrotation Xrotation
					JOINT Neck1
					{
						OFFSET -0.054170 1.746240 0.172020
						CHANNELS 3 Zrotation Yrotation Xrotation
						JOINT Head
						{
							OFFSET 0.104070 1.761360 -0.123970
							CHANNELS 3 Zrotation Yrotation Xrotation
							End Site
							{
								OFFSET 0.000000 0.000000 0.000000
							}
						}
					}
				}
				JOINT LeftShoulder
				{
					OFFSET 0.000000 0.000000 0.000000
					CHANNELS 3 Zrotation Yrotation Xrotation
					JOINT LeftArm
					{
						OFFSET 3.362410 1.200890 -0.311210
						CHANNELS 3 Zrotation Yrotation Xrotation
						JOINT LeftForeArm
						{
							OFFSET 4.983000 -0.000000 -0.000000
							CHANNELS 3 Zrotation Yrotation Xrotation
							JOINT LeftHand
							{
								OFFSET 3.483560 -0.000000 -0.000000
								CHANNELS 3 Zrotation Yrotation Xrotation
								JOINT LeftFingerBase
								{
									OFFSET 0.000000 0.000000 0.000000
									CHANNELS 3 Zrotation Yrotation Xrotation
									JOINT LeftHandIndex1
									{
										OFFSET 0.715260 -0.000000 -0.000000
										CHANNELS 3 Zrotation Yrotation Xrotation
										End Site
										{
											OFFSET 0.000000 0.000000 0.000000
										}
									}
								}
								JOINT LThumb
								{
									OFFSET 0.000000 0.000000 0.000000
									CHANNELS 3 Zrotation Yrotation Xrotation
									End Site
									{
										OFFSET 0.000000 0.000000 0.000000
									}
								}
							}
						}
					}
				}
				JOINT RightShoulder
				{
					OFFSET 0.000000 0.000000 0.000000
					CHANNELS 3 Zrotation Yrotation Xrotation
					JOINT RightArm
					{
						OFFSET -3.136600 1.374050 -0.404650
						CHANNELS 3 Zrotation Yrotation Xrotation
						JOINT RightForeArm
						{
							OFFSET -5.241900 -0.000000 -0.000000
							CHANNELS 3 Zrotation Yrotation Xrotation
							JOINT RightHand
							{
								OFFSET -3.444170 -0.000000 -0.000000
								CHANNELS 3 Zrotation Yrotation Xrotation
								JOINT RightFingerBase
								{
									OFFSET 0.000000 0.000000 0.000000
									CHANNELS 3 Zrotation Yrotation Xrotation
									JOINT RightHandIndex1
									{
										OFFSET -0.622530 -0.000000 -0.000000
										CHANNELS 3 Zrotation Yrotation Xrotation
										End Site
										{
											OFFSET 0.000000 0.000000 0.000000
										}
									}
								}
								JOINT RThumb
								{
									OFFSET 0.000000 0.000000 0.000000
									CHANNELS 3 Zrotation Yrotation Xrotation
									End Site
									{
										OFFSET 0.000000 0.000000 0.000000
									}
								}
							}
						}
					}
				}
			}
		}
	}
}
MOTION
Frames: 5
Frame Time: 0.008333
20.400613 17.835590 -13.507163 0.419392 -22.298942 4.844402 -6.724757 -0.000603 1.990605 -4.258683 3.342366 -32.399998 3.955975 12.767770 38.425613 -0.689886 4.275648 1.903634 0.001200 -0.223000 -0.612700 4.350301 -1.887696 3.888999 18.207082 7.150328 -10.043983 -2.267944 -8.866299 29.471312 0.773942 -5.062550 -7.749171 -0.053000 -1.486000 4.087100 -3.617761 -1.463385 -1.160308 -0.647077 -2.168321 1.472708 -0.162510 -1.194358 1.278141 -10.044438 -4.310764 -8.600374 5.050790 -5.420909 21.205968 1.796900 -2.679300 9.441800 -0.321648 -3.274240 0.889000 -87.094829 -8.301809 56.485049 138.814535 -49.309204 -102.692168 0.453964 -1.337987 15.773454 32.753259 23.307076 14.738300 -7.125000 0.000000 0.000000 2.808900 58.668600 0.939200 1.619970 3.760648 0.483916 83.877391 -1.948400 58.178475 -134.379075 51.501276 -99.926165 0.323425 1.355440 -69.135071 -26.910771 20.051883 -10.239600 7.125000 0.000000 0.000000 0.029700 -7.954700 0.025300 
20.380018 17.861884 -13.331303 0.835625 -22.679714 4.856705 -6.865120 -0.108221 1.892813 -4.186261 3.243203 -32.450292 3.309918 12.055337 35.781946 -1.157301 5.968104 2.594406 0.000200 -0.084800 -0.233100 4.368436 -1.931073 3.987757 17.611879 6.506579 -9.645418 -2.130162 -8.698745 28.832602 0.807042 -5.151647 -7.600150 -0.014000 0.762900 -2.096700 -4.571857 -0.925440 -4.631827 -0.465875 -1.252380 3.433041 0.465405 -0.914005 5.306116 -9.435123 -3.978894 -9.939711 4.235209 -4.703989 21.140952 1.435300 -2.350700 9.605200 -0.342405 -3.470738 0.921564 -87.405658 -10.659674 55.945974 139.757804 -48.708503 -103.260849 0.491302 -1.325404 13.838988 32.791078 23.387321 14.808200 -7.125000 0.000000 0.000000 2.839600 58.774700 0.956700 1.614489 3.812863 0.519448 82.817370 1.122181 59.807566 -135.136430 51.090719 -100.426542 0.311747 1.374889 -70.652811 -27.826073 20.215725 -10.719500 7.125000 0.000000 0.000000 -0.545000 -7.590800 -0.468300 
20.361322 17.878580 -13.139946 0.827086 -23.335109 4.934476 -6.925249 -0.163745 1.798862 -3.665292 3.073623 -32.350176 2.771610 11.439400 33.501020 -1.340028 6.668800 3.214937 0.014500 0.777500 2.136700 4.401725 -1.976753 4.089469 17.354416 6.139580 -8.704228 -1.904915 -8.368690 27.725078 0.774809 -4.992096 -7.157136 -0.013800 0.759200 -2.086400 -4.760391 0.179965 -6.501317 -0.552398 0.375657 4.668603 0.570584 -0.203056 7.579691 -7.402716 -3.834672 -11.917280 2.866414 -4.408694 22.258524 0.601900 -2.139200 10.331600 -0.330626 -3.539182 0.931506 -86.955571 -12.008498 57.072266 140.717854 -48.084009 -103.853145 0.512650 -1.295368 13.151959 32.882108 24.909224 15.653000 -7.125000 0.000000 0.000000 2.545500 60.463600 0.960200 1.607699 3.879634 0.532819 82.769364 2.898433 60.291133 -135.662248 50.798843 -100.790550 0.282659 1.383112 -71.481128 -27.984546 19.803854 -10.572900 7.125000 0.000000 0.000000 -0.700700 -8.024700 -0.596000 
20.339627 17.898876 -12.944790 0.356744 -24.090224 5.082201 -6.935202 -0.165742 1.706489 -2.630831 2.720392 -32.019041 2.267245 10.786723 31.044631 -1.813171 8.387418 4.439169 0.001700 -0.263500 -0.723900 4.433555 -2.026051 4.181285 17.585257 6.184242 -7.472662 -1.711341 -8.048850 26.716583 0.835844 -5.106766 -6.704181 -0.033500 1.180800 -3.246400 -4.248895 1.105122 -6.879828 -0.643544 1.617239 4.895076 0.276918 0.446947 7.942017 -5.175008 -3.078811 -13.085665 1.263778 -3.422743 23.780475 -0.279000 -1.634100 11.082000 -0.314958 -3.501813 0.915560 -86.508385 -11.273319 57.428013 142.031499 -47.197154 -104.698363 0.543707 -1.267785 12.012306 32.110278 25.304364 15.390900 -7.125000 0.000000 0.000000 1.497000 60.658200 0.571500 1.619931 3.885464 0.544786 82.880832 3.454918 61.959708 -135.829773 50.706129 -100.926844 0.267447 1.381044 -71.918380 -27.698635 19.619744 -10.358600 7.125000 0.000000 0.000000 -0.537100 -8.280400 -0.454200 
20.322531 17.917571 -12.759531 -0.030004 -24.778131 5.205915 -6.959935 -0.169891 1.601003 -1.579873 2.114025 -31.688857 1.828901 10.133633 28.666089 -2.490902 10.656546 5.067365 0.025200 1.024100 2.815000 4.468280 -2.100693 4.294151 17.770904 6.422439 -6.238352 -1.509927 -7.703425 25.613798 1.142892 -5.936630 -6.007261 -0.123700 2.267600 -6.245700 -3.526856 0.782553 -6.412055 -0.264049 1.035453 3.854951 0.131698 0.279972 6.523726 -5.960479 -1.031307 -11.147160 0.670375 -0.429882 24.590249 -0.040000 -0.457500 11.029300 -0.327796 -3.381796 0.884738 -87.521429 -7.039859 54.615070 143.875059 -45.996484 -105.777393 0.576661 -1.225392 11.298553 32.063655 25.473293 15.421900 -7.125000 0.000000 0.000000 1.386200 60.782200 0.533300 1.667857 3.722464 0.589625 81.590578 2.591798 67.617288 -135.815097 50.702443 -100.959647 0.256734 1.380782 -72.704882 -27.746902 19.439993 -10.292700 7.125000 0.000000 0.000000 -0.588200 -8.457200 -0.495300 
